<svg width="32" height="29" viewBox="0 0 32 29" fill="none" xmlns="http://www.w3.org/2000/svg">
<g opacity="0.4">
<path d="M19.1111 12.4444C19.8472 12.4444 20.4444 13.2427 20.4444 14.1722C20.4444 15.2 19.8444 16 19.1111 16C18.3778 16 17.7778 15.2 17.7778 14.2222C17.7778 13.2444 18.3722 12.4444 19.1111 12.4444ZM32 25.7777V27.5055C32 28.05 31.6042 28.4444 31.1111 28.4444H28.4444V24.9388H31.1111C31.6042 24.8888 32 25.2833 32 25.7777ZM0.888889 24.8888H3.55556V6.30551C3.55556 4.79162 4.75 3.55551 6.22222 3.55551L12.4444 3.55607V7.11107H7.11111V28.4444H0.888889C0.395834 28.4444 0 28.0486 0 27.6055V25.8777C0 25.2833 0.394444 24.8888 0.888889 24.8888Z" fill="#651FFF"/>
<path d="M16.4278 0.0559016L27.0944 2.81979C27.9389 3.02829 28.4444 3.7644 28.4444 4.6044V28.4444L14.2222 28.4444V1.84051C14.2222 0.646068 15.3056 -0.235765 16.4278 0.0559016ZM19.1111 16C19.8472 16 20.4444 15.2016 20.4444 14.2722C20.4444 13.2933 19.8472 12.5444 19.1111 12.5444C18.375 12.5444 17.7778 13.2444 17.7778 14.2222C17.7778 15.2 18.3722 16 19.1111 16Z" fill="#651FFF"/>
</g>
</svg>
